<svg width="25" height="25" viewBox="0 0 25 25" fill="none" xmlns="http://www.w3.org/2000/svg">
<path d="M15.6252 7.59373V3.12498C15.6252 2.55206 15.1564 2.08331 14.5835 2.08331H10.4168C9.84391 2.08331 9.37516 2.55206 9.37516 3.12498V7.59373C9.37516 7.72915 9.42725 7.86456 9.53141 7.95831L12.1356 10.5625C12.3439 10.7708 12.6668 10.7708 12.8752 10.5625L15.4793 7.95831C15.5731 7.86456 15.6252 7.73956 15.6252 7.59373ZM7.59391 9.37498H3.12516C2.55225 9.37498 2.0835 9.84373 2.0835 10.4166V14.5833C2.0835 15.1562 2.55225 15.625 3.12516 15.625H7.59391C7.72933 15.625 7.86475 15.5729 7.9585 15.4687L10.5627 12.8646C10.771 12.6562 10.771 12.3333 10.5627 12.125L7.9585 9.52081C7.91061 9.47331 7.85365 9.43591 7.79102 9.41086C7.72839 9.38581 7.66136 9.37361 7.59391 9.37498ZM9.37516 17.4062V21.875C9.37516 22.4479 9.84391 22.9166 10.4168 22.9166H14.5835C15.1564 22.9166 15.6252 22.4479 15.6252 21.875V17.4062C15.626 17.3379 15.6125 17.2702 15.5856 17.2074C15.5587 17.1446 15.519 17.0882 15.4689 17.0416L12.8647 14.4375C12.6564 14.2291 12.3335 14.2291 12.1252 14.4375L9.521 17.0416C9.42725 17.1354 9.37516 17.2604 9.37516 17.4062ZM17.0314 9.53123L14.4272 12.1354C14.2189 12.3437 14.2189 12.6666 14.4272 12.875L17.0314 15.4791C17.1252 15.5729 17.2606 15.6354 17.396 15.6354H21.8752C22.4481 15.6354 22.9168 15.1666 22.9168 14.5937V10.4271C22.9168 9.85415 22.4481 9.3854 21.8752 9.3854H17.4064C17.337 9.38012 17.2672 9.39048 17.2023 9.41572C17.1374 9.44096 17.079 9.48043 17.0314 9.53123Z" fill="#2D60E4"/>
</svg>
