<svg width="26" height="25" viewBox="0 0 26 25" fill="none" xmlns="http://www.w3.org/2000/svg">
<path d="M4.65766 10.25C4.70054 9.72796 4.94306 9.24082 5.33693 8.88563C5.73079 8.53044 6.24711 8.33327 6.78304 8.33337H19.6355C20.1714 8.33327 20.6878 8.53044 21.0816 8.88563C21.4755 9.24082 21.718 9.72796 21.7609 10.25L22.6168 20.6667C22.6403 20.9534 22.6029 21.2417 22.5068 21.5135C22.4108 21.7853 22.2581 22.0348 22.0586 22.2461C21.859 22.4575 21.6169 22.6262 21.3474 22.7416C21.0778 22.857 20.7868 22.9166 20.4925 22.9167H5.92607C5.6318 22.9166 5.34074 22.857 5.0712 22.7416C4.80167 22.6262 4.55951 22.4575 4.35996 22.2461C4.16041 22.0348 4.00779 21.7853 3.91172 21.5135C3.81566 21.2417 3.77821 20.9534 3.80175 20.6667L4.65766 10.25V10.25Z" stroke="#484848" stroke-width="2" stroke-linecap="round" stroke-linejoin="round"/>
<path d="M17.4729 11.4584V6.25004C17.4729 5.14497 17.0237 4.08516 16.2241 3.30376C15.4246 2.52236 14.3401 2.08337 13.2094 2.08337C12.0786 2.08337 10.9941 2.52236 10.1946 3.30376C9.39499 4.08516 8.9458 5.14497 8.9458 6.25004V11.4584" stroke="#484848" stroke-width="2" stroke-linecap="round" stroke-linejoin="round"/>
</svg>
