<svg width="27" height="25" viewBox="0 0 27 25" fill="none" xmlns="http://www.w3.org/2000/svg">
<path d="M16.7325 19.7917C16.7325 20.6205 16.3956 21.4154 15.7959 22.0014C15.1962 22.5875 14.3829 22.9167 13.5348 22.9167C12.6867 22.9167 11.8734 22.5875 11.2737 22.0014C10.674 21.4154 10.3371 20.6205 10.3371 19.7917M14.3033 5.21152L12.7407 5.20839C9.17639 5.20006 6.08212 8.03027 6.0576 11.4584V15.4063C6.0576 16.2292 5.95101 17.0323 5.49161 17.7167L5.1857 18.173C4.71991 18.8646 5.22088 19.7917 6.0576 19.7917H21.012C21.8487 19.7917 22.3486 18.8646 21.8839 18.173L21.578 17.7167C21.1197 17.0323 21.012 16.2282 21.012 15.4053V11.4594C20.9694 8.03027 17.8676 5.21985 14.3033 5.21152V5.21152Z" stroke="#484848" stroke-width="2" stroke-linecap="round" stroke-linejoin="round"/>
<path d="M13.5346 2.08337C14.1 2.08337 14.6422 2.30287 15.042 2.69357C15.4418 3.08427 15.6664 3.61417 15.6664 4.16671V5.20837H11.4028V4.16671C11.4028 3.61417 11.6274 3.08427 12.0272 2.69357C12.427 2.30287 12.9692 2.08337 13.5346 2.08337Z" stroke="#484848" stroke-width="2" stroke-linecap="round" stroke-linejoin="round"/>
</svg>
