<svg width="25" height="25" viewBox="0 0 25 25" fill="none" xmlns="http://www.w3.org/2000/svg">
<path d="M11.9667 22.6604C12.273 22.8239 12.6574 22.8229 12.9636 22.6594C21.3095 18.176 21.9022 9.41666 21.8949 6.92603C21.8941 6.72585 21.8349 6.53025 21.7247 6.36318C21.6144 6.19611 21.4578 6.06483 21.274 5.98541L12.8886 2.27082C12.7552 2.212 12.6109 2.18171 12.4651 2.18189C12.3192 2.18206 12.175 2.21271 12.0417 2.27186L3.71466 5.98645C3.53361 6.06591 3.37923 6.19575 3.2699 6.36049C3.16056 6.52522 3.10089 6.71792 3.09799 6.91561C3.06258 9.39374 3.56153 18.1719 11.9667 22.6604ZM9.03549 10.7219L11.424 13.1104L15.8959 8.63853L17.3688 10.1114L11.424 16.0562L7.56258 12.1948L9.03549 10.7219Z" fill="#2D60E4"/>
</svg>
