<svg width="20" height="20" viewBox="0 0 20 20" fill="none" xmlns="http://www.w3.org/2000/svg">
<path fill-rule="evenodd" clip-rule="evenodd" d="M9.99992 0.833313C4.93742 0.833313 0.833252 4.93748 0.833252 9.99998C0.833252 15.0625 4.93742 19.1666 9.99992 19.1666C15.0624 19.1666 19.1666 15.0625 19.1666 9.99998C19.1666 4.93748 15.0624 0.833313 9.99992 0.833313ZM10.8333 5.83331C10.8333 5.6123 10.7455 5.40034 10.5892 5.24406C10.4329 5.08778 10.2209 4.99998 9.99992 4.99998C9.7789 4.99998 9.56694 5.08778 9.41066 5.24406C9.25438 5.40034 9.16658 5.6123 9.16658 5.83331V10.8333C9.16658 11.0543 9.25438 11.2663 9.41066 11.4226C9.56694 11.5788 9.7789 11.6666 9.99992 11.6666C10.2209 11.6666 10.4329 11.5788 10.5892 11.4226C10.7455 11.2663 10.8333 11.0543 10.8333 10.8333V5.83331ZM10.8333 13.75C10.8333 13.529 10.7455 13.317 10.5892 13.1607C10.4329 13.0044 10.2209 12.9166 9.99992 12.9166C9.7789 12.9166 9.56694 13.0044 9.41066 13.1607C9.25438 13.317 9.16658 13.529 9.16658 13.75V14.1666C9.16658 14.3877 9.25438 14.5996 9.41066 14.7559C9.56694 14.9122 9.7789 15 9.99992 15C10.2209 15 10.4329 14.9122 10.5892 14.7559C10.7455 14.5996 10.8333 14.3877 10.8333 14.1666V13.75Z" fill="#2D60E4"/>
</svg>
