<svg width="25" height="25" viewBox="0 0 25 25" fill="none" xmlns="http://www.w3.org/2000/svg">
<path d="M4.16671 4.16669C3.61417 4.16669 3.08427 4.38618 2.69357 4.77688C2.30287 5.16758 2.08337 5.69749 2.08337 6.25002V17.7084C2.08337 18.2609 2.30287 18.7908 2.69357 19.1815C3.08427 19.5722 3.61417 19.7917 4.16671 19.7917V20.8334H6.25004V19.7917H17.7084V20.8334H19.7917V19.7917C20.3442 19.7917 20.8741 19.5722 21.2648 19.1815C21.6555 18.7908 21.875 18.2609 21.875 17.7084V16.6667H22.9167V14.5834H21.875V9.37502H22.9167V7.29169H21.875V6.25002C21.875 5.69749 21.6555 5.16758 21.2648 4.77688C20.8741 4.38618 20.3442 4.16669 19.7917 4.16669H4.16671ZM4.16671 6.25002H19.7917V17.7084H4.16671V6.25002ZM14.0625 7.81252C12.9575 7.81252 11.8977 8.25151 11.1163 9.03291C10.3349 9.81431 9.89587 10.8741 9.89587 11.9792C9.89587 13.0843 10.3349 14.1441 11.1163 14.9255C11.8977 15.7069 12.9575 16.1459 14.0625 16.1459C15.1676 16.1459 16.2274 15.7069 17.0088 14.9255C17.7902 14.1441 18.2292 13.0843 18.2292 11.9792C18.2292 10.8741 17.7902 9.81431 17.0088 9.03291C16.2274 8.25151 15.1676 7.81252 14.0625 7.81252ZM5.20837 9.37502V14.5834H7.29171V9.37502H5.20837ZM14.0625 9.89585C14.6151 9.89585 15.145 10.1153 15.5357 10.506C15.9264 10.8967 16.1459 11.4267 16.1459 11.9792C16.1459 12.5317 15.9264 13.0616 15.5357 13.4523C15.145 13.843 14.6151 14.0625 14.0625 14.0625C13.51 14.0625 12.9801 13.843 12.5894 13.4523C12.1987 13.0616 11.9792 12.5317 11.9792 11.9792C11.9792 11.4267 12.1987 10.8967 12.5894 10.506C12.9801 10.1153 13.51 9.89585 14.0625 9.89585Z" fill="#2D60E4"/>
</svg>
