<svg width="25" height="25" viewBox="0 0 25 25" fill="none" xmlns="http://www.w3.org/2000/svg">
<path d="M23.9484 9.625L23.6484 9.325C23.8425 8.92172 23.909 8.46887 23.8392 8.02681C23.7693 7.58475 23.5664 7.17448 23.2574 6.85069C23.0466 6.64091 22.7935 6.47851 22.515 6.37432C22.2364 6.27014 21.9389 6.22657 21.6421 6.24652C21.3633 6.26282 21.0895 6.32793 20.8331 6.43889V1.38889H1.38867V23.6111H20.8331V12.375L22.9789 10.2292L23.1623 10.4118C23.1862 10.4357 23.2052 10.4641 23.2182 10.4954C23.2312 10.5267 23.2379 10.5602 23.2379 10.5941C23.2379 10.628 23.2312 10.6615 23.2182 10.6928C23.2052 10.724 23.1862 10.7525 23.1623 10.7764L21.5283 12.4111C21.424 12.5153 21.3654 12.6566 21.3653 12.8039C21.3653 12.9513 21.4238 13.0926 21.5279 13.1969C21.6321 13.3011 21.7734 13.3597 21.9207 13.3598C22.0681 13.3598 22.2094 13.3014 22.3137 13.1972L23.9484 11.5625C24.2051 11.3055 24.3493 10.957 24.3493 10.5937C24.3493 10.2305 24.2051 9.88203 23.9484 9.625ZM5.55534 5.69444H16.6678V6.80555H5.55534V5.69444ZM5.55534 8.47222H16.6678V9.58333H5.55534V8.47222ZM5.55534 11.25H12.847V12.3611H5.55534V11.25ZM15.8269 20.7611H10.4081C9.78173 20.7611 9.19562 20.7014 8.8845 20.1889C8.56575 19.6646 8.88242 19.0556 9.11367 18.6097C9.15464 18.5312 9.06367 18.434 8.95951 18.5417C8.65395 18.8556 8.16784 19.4208 7.77687 19.875C7.36367 20.3556 7.19978 20.5437 7.11228 20.6229C7.01971 20.7304 6.89398 20.8041 6.75491 20.8323C6.61584 20.8604 6.47135 20.8415 6.34423 20.7785C6.2301 20.7126 6.14069 20.6111 6.08965 20.4896C6.03861 20.3681 6.02876 20.2332 6.06159 20.1056C6.09075 19.9319 6.58659 18 7.03589 16.2632C6.43867 17.3236 4.54284 20.4993 4.45395 20.6486C4.38783 20.7594 4.28041 20.8394 4.15532 20.871C4.03023 20.9025 3.89772 20.8831 3.78694 20.817C3.67615 20.7509 3.59617 20.6435 3.56459 20.5184C3.53301 20.3933 3.55241 20.2608 3.61853 20.15C3.64284 20.1104 6.01784 16.1306 6.31714 15.5528C6.41472 15.3218 6.59632 15.1365 6.82525 15.0343C7.05418 14.9321 7.31338 14.9206 7.55048 15.0021C7.76449 15.0891 7.93758 15.2539 8.03487 15.4635C8.13216 15.673 8.14642 15.9116 8.07478 16.1312C7.82478 17.0951 7.56992 18.084 7.37339 18.8535C7.69075 18.4868 8.0227 18.1104 8.26228 17.8639C8.44667 17.6422 8.69862 17.4871 8.97956 17.4222C9.2605 17.3574 9.55496 17.3864 9.81784 17.5049C9.98119 17.588 10.112 17.7234 10.1895 17.8895C10.2671 18.0556 10.2868 18.2429 10.2456 18.4215C10.1793 18.6428 10.0889 18.8561 9.97617 19.0576C9.79076 19.4431 9.87895 19.7882 10.4081 19.7882H15.8269C15.9558 19.7882 16.0794 19.8394 16.1706 19.9306C16.2618 20.0217 16.313 20.1454 16.313 20.2743C16.313 20.4032 16.2618 20.5269 16.1706 20.618C16.0794 20.7092 15.9558 20.7604 15.8269 20.7604V20.7611ZM14.3824 17.2542L12.5741 17.7312C12.5478 17.7387 12.5199 17.7389 12.4935 17.7318C12.4671 17.7247 12.4431 17.7106 12.4241 17.691C12.4041 17.6721 12.3898 17.6482 12.3825 17.6217C12.3753 17.5953 12.3755 17.5673 12.3831 17.541L12.8442 15.7361L17.4206 11.1597L18.9484 12.6875L14.3824 17.2542ZM22.3449 9.29097L19.7338 11.9021L18.206 10.3743L20.8171 7.76319C21.0506 7.5231 21.3649 7.3781 21.6991 7.35625L21.7616 7.35416C21.8927 7.35182 22.023 7.3756 22.1449 7.42413C22.2667 7.47265 22.3777 7.54495 22.4713 7.6368C22.672 7.87373 22.7713 8.18021 22.7477 8.48983C22.724 8.79945 22.5793 9.08728 22.3449 9.29097Z" fill="#484848"/>
</svg>
