<svg width="25" height="25" viewBox="0 0 25 25" fill="none" xmlns="http://www.w3.org/2000/svg">
<path d="M13.5418 4.16665V6.9479L12.5002 7.98956L11.4585 6.9479V4.16665H13.5418ZM20.8335 11.4583V13.5416H18.0522L17.0106 12.5L18.0522 11.4583H20.8335ZM6.94808 11.4583L7.98975 12.5L6.94808 13.5416H4.16683V11.4583H6.94808ZM12.5002 17.0104L13.5418 18.0521V20.8333H11.4585V18.0521L12.5002 17.0104ZM15.6252 2.08331H9.37516V7.81248L12.5002 10.9375L15.6252 7.81248V2.08331ZM22.9168 9.37498H17.1877L14.0627 12.5L17.1877 15.625H22.9168V9.37498ZM7.81266 9.37498H2.0835V15.625H7.81266L10.9377 12.5L7.81266 9.37498ZM12.5002 14.0625L9.37516 17.1875V22.9166H15.6252V17.1875L12.5002 14.0625Z" fill="#484848"/>
</svg>
