<svg width="25" height="25" viewBox="0 0 25 25" fill="none" xmlns="http://www.w3.org/2000/svg">
<path d="M6.60706 5.14376C6.70391 5.24051 6.78075 5.35539 6.83317 5.48185C6.88559 5.6083 6.91257 5.74385 6.91257 5.88074C6.91257 6.01763 6.88559 6.15318 6.83317 6.27964C6.78075 6.4061 6.70391 6.52098 6.60706 6.61772C5.04398 8.18107 4.16587 10.3013 4.16587 12.512C4.16587 14.7227 5.04398 16.8429 6.60706 18.4063C6.70378 18.503 6.78048 18.6179 6.8328 18.7444C6.88511 18.8708 6.91201 19.0063 6.91196 19.1431C6.91191 19.2799 6.88492 19.4154 6.83251 19.5418C6.78011 19.6682 6.70333 19.783 6.60654 19.8797C6.50976 19.9764 6.39488 20.0531 6.26845 20.1054C6.14203 20.1577 6.00654 20.1846 5.86972 20.1846C5.7329 20.1846 5.59742 20.1576 5.47104 20.1052C5.34465 20.0527 5.22982 19.976 5.13311 19.8792C1.06436 15.8104 1.06436 9.21251 5.13311 5.14376C5.22985 5.04691 5.34473 4.97008 5.47119 4.91766C5.59765 4.86524 5.73319 4.83826 5.87008 4.83826C6.00698 4.83826 6.14252 4.86524 6.26898 4.91766C6.39544 4.97008 6.51032 5.04691 6.60706 5.14376ZM19.8685 5.14376C23.9373 9.21356 23.9373 15.8104 19.8685 19.8792C19.6721 20.0689 19.4089 20.1739 19.1358 20.1715C18.8627 20.1692 18.6014 20.0596 18.4083 19.8665C18.2152 19.6734 18.1056 19.4121 18.1032 19.139C18.1009 18.8659 18.2059 18.6027 18.3956 18.4063C19.9587 16.8429 20.8368 14.7227 20.8368 12.512C20.8368 10.3013 19.9587 8.18107 18.3956 6.61772C18.2001 6.4224 18.0903 6.15743 18.0902 5.88111C18.0901 5.60479 18.1998 5.33974 18.3951 5.14428C18.5904 4.94883 18.8554 4.83896 19.1317 4.83887C19.408 4.83877 19.6731 4.94844 19.8685 5.14376ZM9.69769 8.13751C9.89297 8.33285 10.0027 8.59776 10.0027 8.87397C10.0027 9.15019 9.89297 9.41509 9.69769 9.61043C9.31847 9.98961 9.01766 10.4398 8.81243 10.9352C8.60719 11.4307 8.50156 11.9617 8.50156 12.4979C8.50156 13.0342 8.60719 13.5652 8.81243 14.0607C9.01766 14.5561 9.31847 15.0063 9.69769 15.3854C9.79718 15.4815 9.87654 15.5965 9.93113 15.7236C9.98572 15.8506 10.0145 15.9873 10.0157 16.1256C10.0169 16.2639 9.99051 16.4011 9.93813 16.5291C9.88575 16.6572 9.80841 16.7735 9.7106 16.8713C9.6128 16.9691 9.49649 17.0464 9.36847 17.0988C9.24046 17.1512 9.10329 17.1775 8.96498 17.1763C8.82667 17.1751 8.68998 17.1464 8.56289 17.0918C8.43581 17.0372 8.32086 16.9578 8.22477 16.8583C7.06834 15.7019 6.41867 14.1334 6.41867 12.4979C6.41867 10.8625 7.06834 9.29398 8.22477 8.13751C8.42011 7.94223 8.68502 7.83253 8.96123 7.83253C9.23744 7.83253 9.50235 7.94223 9.69769 8.13751ZM16.9466 8.13751C18.1031 9.29398 18.7527 10.8625 18.7527 12.4979C18.7527 14.1334 18.1031 15.7019 16.9466 16.8583C16.8499 16.9551 16.7351 17.0319 16.6087 17.0843C16.4823 17.1367 16.3469 17.1637 16.21 17.1638C16.0732 17.1638 15.9377 17.1369 15.8113 17.0846C15.6849 17.0323 15.57 16.9556 15.4732 16.8589C15.3764 16.7622 15.2996 16.6473 15.2472 16.5209C15.1948 16.3946 15.1678 16.2591 15.1678 16.1223C15.1677 15.9854 15.1946 15.8499 15.247 15.7235C15.2993 15.5971 15.376 15.4822 15.4727 15.3854C15.8519 15.0063 16.1527 14.5561 16.358 14.0607C16.5632 13.5652 16.6688 13.0342 16.6688 12.4979C16.6688 11.9617 16.5632 11.4307 16.358 10.9352C16.1527 10.4398 15.8519 9.98961 15.4727 9.61043C15.2774 9.41497 15.1677 9.14993 15.1678 8.8736C15.1679 8.59728 15.2778 8.33231 15.4732 8.13699C15.6687 7.94167 15.9337 7.832 16.21 7.83209C16.4864 7.83219 16.7513 7.94205 16.9466 8.13751ZM12.5852 11.0229C12.7904 11.0229 12.9936 11.0633 13.1831 11.1419C13.3727 11.2204 13.545 11.3355 13.69 11.4806C13.8351 11.6257 13.9502 11.7979 14.0288 11.9875C14.1073 12.1771 14.1477 12.3802 14.1477 12.5854C14.1477 12.7906 14.1073 12.9938 14.0288 13.1834C13.9502 13.3729 13.8351 13.5452 13.69 13.6903C13.545 13.8354 13.3727 13.9505 13.1831 14.029C12.9936 14.1075 12.7904 14.1479 12.5852 14.1479C12.1708 14.1479 11.7734 13.9833 11.4803 13.6903C11.1873 13.3973 11.0227 12.9998 11.0227 12.5854C11.0227 12.171 11.1873 11.7736 11.4803 11.4806C11.7734 11.1876 12.1708 11.0229 12.5852 11.0229Z" fill="#484848"/>
</svg>
