<svg width="25" height="25" viewBox="0 0 25 25" fill="none" xmlns="http://www.w3.org/2000/svg">
<path d="M9.37493 4.91071C7.36213 4.91071 5.43176 5.71029 4.00849 7.13356C2.58523 8.55682 1.78564 10.4872 1.78564 12.5C1.78564 14.5128 2.58523 16.4432 4.00849 17.8664C5.43176 19.2897 7.36213 20.0893 9.37493 20.0893H15.6249C17.6377 20.0893 19.5681 19.2897 20.9914 17.8664C22.4146 16.4432 23.2142 14.5128 23.2142 12.5C23.2142 10.4872 22.4146 8.55682 20.9914 7.13356C19.5681 5.71029 17.6377 4.91071 15.6249 4.91071H9.37493ZM16.0714 14.7321C16.0714 15.0873 15.9303 15.428 15.6791 15.6792C15.4279 15.9303 15.0873 16.0714 14.7321 16.0714C14.3769 16.0714 14.0362 15.9303 13.7851 15.6792C13.5339 15.428 13.3928 15.0873 13.3928 14.7321C13.3928 14.3769 13.5339 14.0363 13.7851 13.7851C14.0362 13.534 14.3769 13.3928 14.7321 13.3928C15.0873 13.3928 15.4279 13.534 15.6791 13.7851C15.9303 14.0363 16.0714 14.3769 16.0714 14.7321ZM17.4106 12.5C17.2348 12.5 17.0606 12.4653 16.8981 12.398C16.7356 12.3307 16.588 12.2321 16.4636 12.1077C16.3393 11.9834 16.2406 11.8357 16.1733 11.6732C16.106 11.5107 16.0714 11.3366 16.0714 11.1607C16.0714 10.9848 16.106 10.8107 16.1733 10.6482C16.2406 10.4857 16.3393 10.3381 16.4636 10.2137C16.588 10.0893 16.7356 9.99067 16.8981 9.92337C17.0606 9.85606 17.2348 9.82142 17.4106 9.82142C17.7658 9.82142 18.1065 9.96252 18.3577 10.2137C18.6088 10.4649 18.7499 10.8055 18.7499 11.1607C18.7499 11.5159 18.6088 11.8566 18.3577 12.1077C18.1065 12.3589 17.7658 12.5 17.4106 12.5ZM4.91064 12.2768C4.91064 12.0992 4.9812 11.9289 5.10678 11.8033C5.23236 11.6777 5.40269 11.6071 5.58029 11.6071H7.14279V10.0446C7.14279 9.86703 7.21334 9.69671 7.33892 9.57113C7.4645 9.44554 7.63483 9.37499 7.81243 9.37499C7.99003 9.37499 8.16036 9.44554 8.28594 9.57113C8.41152 9.69671 8.48207 9.86703 8.48207 10.0446V11.6071H10.0446C10.2222 11.6071 10.3925 11.6777 10.5181 11.8033C10.6437 11.9289 10.7142 12.0992 10.7142 12.2768C10.7142 12.4544 10.6437 12.6247 10.5181 12.7503C10.3925 12.8759 10.2222 12.9464 10.0446 12.9464H8.48207V14.5089C8.48207 14.6865 8.41152 14.8568 8.28594 14.9824C8.16036 15.108 7.99003 15.1786 7.81243 15.1786C7.63483 15.1786 7.4645 15.108 7.33892 14.9824C7.21334 14.8568 7.14279 14.6865 7.14279 14.5089V12.9464H5.58029C5.40269 12.9464 5.23236 12.8759 5.10678 12.7503C4.9812 12.6247 4.91064 12.4544 4.91064 12.2768Z" fill="#484848"/>
</svg>
