<svg width="25" height="25" viewBox="0 0 25 25" fill="none" xmlns="http://www.w3.org/2000/svg">
<path d="M12.5002 2.08331C6.75641 2.08331 2.0835 6.75623 2.0835 12.5C2.0835 18.2437 6.75641 22.9166 12.5002 22.9166C18.2439 22.9166 22.9168 18.2437 22.9168 12.5C22.9168 6.75623 18.2439 2.08331 12.5002 2.08331ZM13.5418 18.75H11.4585V16.6666H13.5418V18.75ZM14.5585 13.6614C14.3543 13.826 14.1575 13.9833 14.0012 14.1396C13.5762 14.5635 13.5429 14.9489 13.5418 14.9656V15.1041H11.4585V14.9302C11.4585 14.8073 11.4887 13.7041 12.5272 12.6656C12.7304 12.4625 12.9825 12.2562 13.247 12.0416C14.0116 11.4219 14.5137 10.9698 14.5137 10.3469C14.5016 9.82063 14.284 9.32003 13.9075 8.95219C13.531 8.58434 13.0255 8.37846 12.4991 8.3786C11.9728 8.37873 11.4674 8.58488 11.091 8.95292C10.7147 9.32096 10.4974 9.82166 10.4856 10.3479H8.40225C8.40225 8.08852 10.2408 6.24998 12.5002 6.24998C14.7595 6.24998 16.5981 8.08852 16.5981 10.3479C16.5981 12.0114 15.37 13.0041 14.5585 13.6614Z" fill="#484848"/>
</svg>
