<svg width="25" height="25" viewBox="0 0 25 25" fill="none" xmlns="http://www.w3.org/2000/svg">
<path fill-rule="evenodd" clip-rule="evenodd" d="M12.4998 1.04169C6.17171 1.04169 1.0415 6.1719 1.0415 12.5C1.0415 18.8281 6.17171 23.9584 12.4998 23.9584C18.828 23.9584 23.9582 18.8281 23.9582 12.5C23.9582 6.1719 18.828 1.04169 12.4998 1.04169ZM11.979 6.25002C11.7027 6.25002 11.4378 6.35977 11.2424 6.55512C11.0471 6.75047 10.9373 7.01542 10.9373 7.29169C10.9373 7.56795 11.0471 7.83291 11.2424 8.02826C11.4378 8.22361 11.7027 8.33335 11.979 8.33335H12.4998C12.7761 8.33335 13.0411 8.22361 13.2364 8.02826C13.4318 7.83291 13.5415 7.56795 13.5415 7.29169C13.5415 7.01542 13.4318 6.75047 13.2364 6.55512C13.0411 6.35977 12.7761 6.25002 12.4998 6.25002H11.979ZM10.4165 10.4167C10.1402 10.4167 9.87528 10.5264 9.67993 10.7218C9.48458 10.9171 9.37484 11.1821 9.37484 11.4584C9.37484 11.7346 9.48458 11.9996 9.67993 12.1949C9.87528 12.3903 10.1402 12.5 10.4165 12.5H11.4582V15.625H10.4165C10.1402 15.625 9.87528 15.7348 9.67993 15.9301C9.48458 16.1255 9.37484 16.3904 9.37484 16.6667C9.37484 16.943 9.48458 17.2079 9.67993 17.4033C9.87528 17.5986 10.1402 17.7084 10.4165 17.7084H14.5832C14.8594 17.7084 15.1244 17.5986 15.3197 17.4033C15.5151 17.2079 15.6248 16.943 15.6248 16.6667C15.6248 16.3904 15.5151 16.1255 15.3197 15.9301C15.1244 15.7348 14.8594 15.625 14.5832 15.625H13.5415V11.4584C13.5415 11.1821 13.4318 10.9171 13.2364 10.7218C13.0411 10.5264 12.7761 10.4167 12.4998 10.4167H10.4165Z" fill="#484848"/>
</svg>
