<svg width="150" height="52" viewBox="0 0 150 52" fill="none" xmlns="http://www.w3.org/2000/svg">
<path d="M2.1 4H12.03C14.33 4 16.37 4.43 18.15 5.29C19.93 6.15 21.31 7.37 22.29 8.95C23.27 10.53 23.76 12.38 23.76 14.5C23.76 16.62 23.27 18.47 22.29 20.05C21.31 21.63 19.93 22.85 18.15 23.71C16.37 24.57 14.33 25 12.03 25H2.1V4ZM11.79 20.26C13.59 20.26 15.03 19.75 16.11 18.73C17.21 17.71 17.76 16.3 17.76 14.5C17.76 12.7 17.21 11.29 16.11 10.27C15.03 9.25 13.59 8.74 11.79 8.74H8.04V20.26H11.79ZM26.6152 8.74H32.3152V25H26.6152V8.74ZM29.4652 6.94C28.4252 6.94 27.5852 6.65 26.9452 6.07C26.3052 5.49 25.9852 4.77 25.9852 3.91C25.9852 3.05 26.3052 2.33 26.9452 1.75C27.5852 1.17 28.4252 0.879999 29.4652 0.879999C30.5052 0.879999 31.3452 1.16 31.9852 1.72C32.6252 2.26 32.9452 2.96 32.9452 3.82C32.9452 4.72 32.6252 5.47 31.9852 6.07C31.3452 6.65 30.5052 6.94 29.4652 6.94ZM53.5095 8.74V22.03C53.5095 25.05 52.6895 27.31 51.0495 28.81C49.4095 30.33 47.0495 31.09 43.9695 31.09C42.3695 31.09 40.8695 30.91 39.4695 30.55C38.0695 30.19 36.8795 29.66 35.8995 28.96L37.9695 24.97C38.6295 25.51 39.4595 25.93 40.4595 26.23C41.4795 26.55 42.4795 26.71 43.4595 26.71C44.9595 26.71 46.0595 26.38 46.7595 25.72C47.4595 25.06 47.8095 24.08 47.8095 22.78V22.24C46.7095 23.52 45.0995 24.16 42.9795 24.16C41.5395 24.16 40.2095 23.84 38.9895 23.2C37.7695 22.54 36.7995 21.62 36.0795 20.44C35.3595 19.24 34.9995 17.86 34.9995 16.3C34.9995 14.76 35.3595 13.4 36.0795 12.22C36.7995 11.02 37.7695 10.1 38.9895 9.46C40.2095 8.8 41.5395 8.47 42.9795 8.47C45.2995 8.47 46.9995 9.22 48.0795 10.72V8.74H53.5095ZM44.3295 19.63C45.3495 19.63 46.1895 19.32 46.8495 18.7C47.5295 18.08 47.8695 17.28 47.8695 16.3C47.8695 15.32 47.5395 14.53 46.8795 13.93C46.2195 13.31 45.3695 13 44.3295 13C43.2895 13 42.4295 13.31 41.7495 13.93C41.0895 14.53 40.7595 15.32 40.7595 16.3C40.7595 17.28 41.0995 18.08 41.7795 18.7C42.4595 19.32 43.3095 19.63 44.3295 19.63ZM57.1718 8.74H62.8718V25H57.1718V8.74ZM60.0218 6.94C58.9818 6.94 58.1418 6.65 57.5018 6.07C56.8618 5.49 56.5418 4.77 56.5418 3.91C56.5418 3.05 56.8618 2.33 57.5018 1.75C58.1418 1.17 58.9818 0.879999 60.0218 0.879999C61.0618 0.879999 61.9018 1.16 62.5418 1.72C63.1818 2.26 63.5018 2.96 63.5018 3.82C63.5018 4.72 63.1818 5.47 62.5418 6.07C61.9018 6.65 61.0618 6.94 60.0218 6.94ZM77.7961 24.34C77.3161 24.64 76.7261 24.87 76.0261 25.03C75.3461 25.19 74.6161 25.27 73.8361 25.27C71.7161 25.27 70.0861 24.75 68.9461 23.71C67.8061 22.67 67.2361 21.12 67.2361 19.06V13.6H64.8661V9.34H67.2361V5.11H72.9361V9.34H76.6561V13.6H72.9361V19C72.9361 19.58 73.0861 20.04 73.3861 20.38C73.7061 20.7 74.1261 20.86 74.6461 20.86C75.3061 20.86 75.8861 20.69 76.3861 20.35L77.7961 24.34ZM86.9241 8.47C89.6241 8.47 91.6841 9.09 93.1041 10.33C94.5241 11.55 95.2341 13.43 95.2341 15.97V25H89.9241V22.9C89.1041 24.48 87.5041 25.27 85.1241 25.27C83.8641 25.27 82.7741 25.05 81.8541 24.61C80.9341 24.17 80.2341 23.58 79.7541 22.84C79.2941 22.08 79.0641 21.22 79.0641 20.26C79.0641 18.72 79.6541 17.53 80.8341 16.69C82.0141 15.83 83.8341 15.4 86.2941 15.4H89.5341C89.4341 13.68 88.2841 12.82 86.0841 12.82C85.3041 12.82 84.5141 12.95 83.7141 13.21C82.9141 13.45 82.2341 13.79 81.6741 14.23L79.7541 10.36C80.6541 9.76 81.7441 9.3 83.0241 8.98C84.3241 8.64 85.6241 8.47 86.9241 8.47ZM86.7141 21.67C87.3741 21.67 87.9541 21.51 88.4541 21.19C88.9541 20.87 89.3141 20.4 89.5341 19.78V18.37H87.0741C85.4141 18.37 84.5841 18.92 84.5841 20.02C84.5841 20.52 84.7741 20.92 85.1541 21.22C85.5341 21.52 86.0541 21.67 86.7141 21.67ZM98.832 2.74H104.532V25H98.832V2.74Z" fill="white"/>
<path d="M103.57 50.42C101.37 50.42 99.39 49.96 97.63 49.04C95.89 48.1 94.52 46.8 93.52 45.14C92.52 43.48 92.02 41.6 92.02 39.5C92.02 37.4 92.52 35.52 93.52 33.86C94.52 32.2 95.89 30.91 97.63 29.99C99.39 29.05 101.37 28.58 103.57 28.58C105.49 28.58 107.22 28.92 108.76 29.6C110.3 30.28 111.58 31.26 112.6 32.54L108.82 35.96C107.46 34.32 105.81 33.5 103.87 33.5C102.73 33.5 101.71 33.75 100.81 34.25C99.93 34.75 99.24 35.46 98.74 36.38C98.26 37.28 98.02 38.32 98.02 39.5C98.02 40.68 98.26 41.73 98.74 42.65C99.24 43.55 99.93 44.25 100.81 44.75C101.71 45.25 102.73 45.5 103.87 45.5C105.81 45.5 107.46 44.68 108.82 43.04L112.6 46.46C111.58 47.74 110.3 48.72 108.76 49.4C107.22 50.08 105.49 50.42 103.57 50.42ZM131.727 33.74V50H126.297V48.26C125.697 48.92 124.977 49.42 124.137 49.76C123.297 50.1 122.407 50.27 121.467 50.27C119.367 50.27 117.687 49.65 116.427 48.41C115.187 47.17 114.567 45.31 114.567 42.83V33.74H120.267V41.9C120.267 43.12 120.497 44.01 120.957 44.57C121.417 45.13 122.087 45.41 122.967 45.41C123.867 45.41 124.597 45.1 125.157 44.48C125.737 43.84 126.027 42.87 126.027 41.57V33.74H131.727ZM140.828 35.69C141.408 34.95 142.158 34.4 143.078 34.04C144.018 33.66 145.088 33.47 146.288 33.47V38.6C145.768 38.54 145.338 38.51 144.998 38.51C143.778 38.51 142.818 38.84 142.118 39.5C141.438 40.16 141.098 41.17 141.098 42.53V50H135.398V33.74H140.828V35.69Z" fill="white"/>
</svg>
