<svg width="51" height="50" viewBox="0 0 51 50" fill="none" xmlns="http://www.w3.org/2000/svg">
<g clip-path="url(#clip0_57_1312)">
<path d="M2.59852 9.75C1.31911 9.75 0.281189 10.7915 0.281189 12.0766V38.8236C0.281189 40.1084 1.31926 41.1501 2.59852 41.1501H47.7659C49.0453 41.1501 50.0832 40.1086 50.0832 38.8235V12.0765C50.0832 10.7917 49.0451 9.74995 47.7659 9.74995H2.59847L2.59852 9.75ZM16.6116 13.5297C19.4543 13.5297 22.0651 14.5227 24.1145 16.1813C22.3903 17.7302 21.1042 19.7653 20.4697 22.0719H21.4642C22.0498 20.169 23.1138 18.4748 24.5161 17.1313C25.9184 18.4748 26.9823 20.169 27.568 22.0719H28.5781C27.9347 19.7774 26.6469 17.7545 24.9239 16.2157C26.9772 14.536 29.5983 13.5297 32.4533 13.5297C39.0416 13.5297 44.3824 18.8923 44.3824 25.5078C44.3824 32.1234 39.0416 37.486 32.4533 37.486C29.5508 37.486 26.8894 36.4459 24.8211 34.7157C26.6713 33.0996 28.0352 30.9333 28.659 28.4688H27.6862C27.1324 30.5373 26.0176 32.377 24.516 33.8157C23.0145 32.377 21.9013 30.5373 21.3474 28.4688H20.4214C21.0488 30.8976 22.3949 33.0336 24.2172 34.6345C22.1527 36.3433 19.5018 37.3704 16.6115 37.3704C10.0232 37.3704 4.68244 32.0335 4.68244 25.45C4.68244 18.8665 10.0232 13.5297 16.6116 13.5297ZM31.5584 21.95C30.125 21.95 28.7306 23.2081 28.7306 25.5703C28.7306 27.1367 29.4838 28.1703 30.9654 28.1703C31.3844 28.1705 32.0518 27.9985 32.0518 27.9985L32.2727 26.6297C32.2727 26.6297 31.6637 26.9391 31.2456 26.9391C30.3648 26.9391 30.0114 26.259 30.0114 25.5282C30.0114 24.0455 30.7692 23.2297 31.6129 23.2297C32.2455 23.2297 32.7536 23.5891 32.7536 23.5891L32.956 22.2578C32.956 22.2578 32.2038 21.95 31.5583 21.95H31.5584ZM43.6089 22.0657L42.3623 22.0688L42.0946 23.7157C42.0946 23.7157 41.626 23.0766 40.8932 23.0766C39.7537 23.0766 38.8046 24.4356 38.8046 25.9985C38.8046 27.0073 39.3097 27.9969 40.3453 27.9969C41.0903 27.9969 41.5032 27.4829 41.5032 27.4829L41.4487 27.9219H42.6596L43.6089 22.0657ZM7.90398 22.0828L6.91108 27.9531H8.10787L8.86426 23.5266L8.97631 27.9531H9.83226L11.4291 23.5266L10.7209 27.9531H11.9924L12.9729 22.0828H11.0057L9.78092 25.6844L9.71712 22.0829H7.90403L7.90398 22.0828ZM20.4074 22.4641C20.3804 22.4913 19.6837 26.5244 19.6837 27.0156C19.6837 27.7429 20.0898 28.0678 20.6611 28.0625C21.0705 28.059 21.3875 27.9558 21.5342 27.9125C21.5495 27.9084 21.5793 27.9 21.5793 27.9L21.7334 26.85C21.6496 26.85 21.5262 26.886 21.4174 26.886C20.9909 26.886 20.9436 26.6581 20.9708 26.4891L21.3148 24.3469H21.9637L22.1209 23.1859H21.5093L21.6338 22.4641H20.4074ZM34.8733 23.0547C34.038 23.0547 33.398 23.3313 33.398 23.3313L33.2205 24.4094C33.2205 24.4094 33.7492 24.1891 34.5481 24.1891C35.0017 24.1891 35.334 24.2412 35.334 24.6203C35.334 24.8506 35.2935 24.936 35.2935 24.936C35.2935 24.936 34.9348 24.9047 34.7691 24.9047C33.7156 24.9047 32.6089 25.3682 32.6089 26.7625C32.6089 27.8611 33.3355 28.1125 33.7855 28.1125C34.645 28.1125 35.0156 27.5393 35.0352 27.5375L34.9947 28.0157H36.067L36.5464 24.5657C36.5465 23.1018 35.3046 23.0547 34.8733 23.0547V23.0547ZM14.758 23.061C13.9196 23.061 13.2764 23.3375 13.2764 23.3375L13.099 24.4157C13.099 24.4157 13.6294 24.1953 14.4312 24.1953C14.8865 24.1953 15.2202 24.2476 15.2202 24.6266C15.2202 24.8568 15.1797 24.9422 15.1797 24.9422C15.1797 24.9422 14.82 24.911 14.6537 24.911C13.5963 24.911 12.4858 25.3737 12.4858 26.7672C12.4858 27.8652 13.2138 28.1172 13.6655 28.1172C14.5281 28.1172 14.9001 27.5439 14.9199 27.5422L14.8794 28.0203H15.9564L16.4372 24.5719C16.4372 23.1089 15.1909 23.0609 14.758 23.0609V23.061ZM18.5616 23.061C17.6613 23.061 16.747 23.4258 16.747 24.6719C16.747 26.0838 18.2706 25.9412 18.2706 26.5359C18.2706 26.9329 17.8454 26.9657 17.5174 26.9657C16.9496 26.9657 16.4391 26.7687 16.4372 26.7782L16.2738 27.8563C16.3032 27.8654 16.6194 28.0078 17.6403 28.0078C17.9144 28.0078 19.4814 28.0777 19.4814 26.4391C19.4814 24.9071 18.0309 25.2108 18.0309 24.5953C18.0309 24.2889 18.2664 24.1922 18.6986 24.1922C18.8702 24.1922 19.5312 24.2469 19.5312 24.2469L19.6837 23.1578C19.6837 23.158 19.2572 23.061 18.5617 23.061H18.5616ZM24.1892 23.061C22.9382 23.0612 22.012 24.4118 22.012 25.9375C22.012 27.6985 23.1725 28.1172 24.1612 28.1172C25.0739 28.1172 25.4763 27.9125 25.4763 27.9125L25.6942 26.711C25.6942 26.711 24.9999 27.0172 24.3729 27.0172C23.0369 27.0172 23.271 26.0188 23.271 26.0188H25.8C25.8 26.0188 25.9635 25.2119 25.9635 24.8828C25.9635 24.0618 25.5553 23.061 24.1893 23.061H24.1892ZM28.7197 23.1125C28.1561 23.1125 27.7376 23.8735 27.7376 23.8735L27.8497 23.175H26.6793L25.8934 27.9969H27.1867C27.553 25.9378 27.6199 24.2659 28.494 24.5719C28.647 23.7749 28.7955 23.467 28.9624 23.1297C28.9624 23.1297 28.884 23.1125 28.7197 23.1125H28.7197ZM39.1983 23.1125C38.6347 23.1125 38.2163 23.8735 38.2163 23.8735L38.3284 23.175H37.158L36.372 27.9969H37.6638C38.0302 25.9378 38.0988 24.2659 38.9726 24.5719C39.1259 23.7749 39.2742 23.467 39.4411 23.1297C39.4411 23.1297 39.3626 23.1125 39.1983 23.1125H39.1983ZM24.183 24.1485C24.8935 24.1485 24.7635 24.9537 24.7635 25.0188H23.3644C23.3644 24.9357 23.4968 24.1485 24.183 24.1485H24.183ZM41.0893 24.2422C41.5415 24.2421 41.7741 24.5488 41.7741 25.2703C41.7741 25.925 41.4452 26.8 40.764 26.8C40.3119 26.8 40.0994 26.4252 40.0994 25.8375C40.0994 24.8766 40.5373 24.2422 41.0892 24.2422H41.0893ZM34.8749 25.8828C35.0594 25.8831 35.0975 25.9011 35.1286 25.9094C35.1241 25.9087 35.1232 25.9095 35.141 25.9125C35.1644 26.1273 35.0118 27.1344 34.2741 27.1344C33.8938 27.1344 33.7964 26.8308 33.7964 26.6516C33.7964 26.3022 33.9776 25.8828 34.8749 25.8828ZM14.7596 25.8875C14.9691 25.8878 14.9919 25.9113 15.0273 25.9172C15.0507 26.1319 14.8975 27.1375 14.1573 27.1375C13.7754 27.1375 13.6764 26.8353 13.6764 26.6563C13.6764 26.3071 13.8587 25.8875 14.7596 25.8875Z" fill="white"/>
</g>
<defs>
<clipPath id="clip0_57_1312">
<rect width="49.802" height="50" fill="white" transform="translate(0.281189)"/>
</clipPath>
</defs>
</svg>
