<svg width="24" height="24" viewBox="0 0 24 24" fill="none" xmlns="http://www.w3.org/2000/svg">
<path fill-rule="evenodd" clip-rule="evenodd" d="M17.9 4.2C17.6206 3.82741 17.2582 3.525 16.8416 3.31672C16.4251 3.10844 15.9657 3 15.5 3H4.5C3.70435 3 2.94129 3.31607 2.37868 3.87868C1.81607 4.44129 1.5 5.20435 1.5 6V18C1.5 18.7956 1.81607 19.5587 2.37868 20.1213C2.94129 20.6839 3.70435 21 4.5 21H15.5C15.9657 21 16.4251 20.8916 16.8416 20.6833C17.2582 20.475 17.6206 20.1726 17.9 19.8L22.4 13.8C22.7895 13.2807 23 12.6491 23 12C23 11.3509 22.7895 10.7193 22.4 10.2L17.9 4.2V4.2Z" fill="white"/>
</svg>
