<svg width="25" height="27" viewBox="0 0 25 27" fill="none" xmlns="http://www.w3.org/2000/svg">
<path d="M10.4168 19.9317C12.2658 19.9313 14.0614 19.3016 15.5179 18.1427L20.097 22.8018L21.57 21.3032L16.9908 16.6441C18.1304 15.1621 18.7497 13.3347 18.7502 11.453C18.7502 6.77811 15.0116 2.97437 10.4168 2.97437C5.82204 2.97437 2.0835 6.77811 2.0835 11.453C2.0835 16.128 5.82204 19.9317 10.4168 19.9317ZM10.4168 5.09404C13.8637 5.09404 16.6668 7.94605 16.6668 11.453C16.6668 14.96 13.8637 17.8121 10.4168 17.8121C6.96995 17.8121 4.16683 14.96 4.16683 11.453C4.16683 7.94605 6.96995 5.09404 10.4168 5.09404Z" fill="#484848"/>
</svg>
