<svg width="25" height="25" viewBox="0 0 25 25" fill="none" xmlns="http://www.w3.org/2000/svg">
<path d="M21.7409 18.4399L13.1325 6.57227C12.82 6.14258 12.1803 6.14258 11.8703 6.57227L3.25943 18.4399C3.23824 18.4691 3.22554 18.5036 3.22275 18.5396C3.21996 18.5755 3.22718 18.6116 3.24362 18.6437C3.26005 18.6758 3.28505 18.7027 3.31585 18.7215C3.34666 18.7402 3.38205 18.7501 3.41812 18.75H5.24918C5.37369 18.75 5.49088 18.689 5.56412 18.5889L12.5002 9.02832L19.4362 18.5889C19.5094 18.689 19.6266 18.75 19.7511 18.75H21.5822C21.7409 18.75 21.8337 18.5693 21.7409 18.4399Z" fill="white"/>
</svg>
