<svg width="25" height="26" viewBox="0 0 25 26" fill="none" xmlns="http://www.w3.org/2000/svg">
<path d="M20.9595 18.9677C20.499 17.8578 19.8307 16.8496 18.9918 15.9994C18.1554 15.1466 17.1647 14.4667 16.0743 13.9973C16.0645 13.9923 16.0547 13.9898 16.045 13.9848C17.566 12.867 18.5547 11.0463 18.5547 8.99202C18.5547 5.58895 15.8448 2.83173 12.5001 2.83173C9.15533 2.83173 6.44537 5.58895 6.44537 8.99202C6.44537 11.0463 7.43414 12.867 8.95514 13.9873C8.94537 13.9923 8.93561 13.9948 8.92584 13.9997C7.83209 14.4692 6.85065 15.1424 6.00836 16.0018C5.17025 16.8528 4.50203 17.8608 4.04059 18.9702C3.58727 20.0563 3.34279 21.2208 3.32037 22.4006C3.31972 22.4271 3.32429 22.4535 3.33382 22.4782C3.34334 22.5028 3.35762 22.5253 3.37582 22.5443C3.39403 22.5633 3.41578 22.5784 3.4398 22.5887C3.46382 22.599 3.48962 22.6043 3.51569 22.6043H4.98053C5.08795 22.6043 5.1734 22.5173 5.17584 22.4105C5.22467 20.4929 5.98151 18.697 7.3194 17.3357C8.70367 15.9273 10.5421 15.1523 12.5001 15.1523C14.4581 15.1523 16.2964 15.9273 17.6807 17.3357C19.0186 18.697 19.7755 20.4929 19.8243 22.4105C19.8267 22.5198 19.9122 22.6043 20.0196 22.6043H21.4844C21.5105 22.6043 21.5363 22.599 21.5603 22.5887C21.5843 22.5784 21.6061 22.5633 21.6243 22.5443C21.6425 22.5253 21.6568 22.5028 21.6663 22.4782C21.6758 22.4535 21.6804 22.4271 21.6797 22.4006C21.6553 21.2132 21.4136 20.0582 20.9595 18.9677ZM12.5001 13.2645C11.3795 13.2645 10.3248 12.8198 9.53131 12.0125C8.73785 11.2053 8.30084 10.1322 8.30084 8.99202C8.30084 7.85187 8.73785 6.77878 9.53131 5.97149C10.3248 5.16419 11.3795 4.71956 12.5001 4.71956C13.6207 4.71956 14.6754 5.16419 15.4688 5.97149C16.2623 6.77878 16.6993 7.85187 16.6993 8.99202C16.6993 10.1322 16.2623 11.2053 15.4688 12.0125C14.6754 12.8198 13.6207 13.2645 12.5001 13.2645Z" fill="#484848"/>
</svg>
