<svg width="51" height="50" viewBox="0 0 51 50" fill="none" xmlns="http://www.w3.org/2000/svg">
<g clip-path="url(#clip0_57_1314)">
<path d="M2.51088 9.3C1.4109 9.3 0.518799 10.1954 0.518799 11.3V38.7C0.518799 39.8046 1.41135 40.7 2.51088 40.7H48.3287C49.4287 40.7 50.3208 39.8046 50.3208 38.7V11.3C50.3208 10.1955 49.4282 9.3 48.3287 9.3H2.51088ZM30.263 18.6578C31.4751 18.6578 32.4465 18.9266 33.0659 19.1766L32.6426 21.85L32.3625 21.7078C31.7854 21.4579 31.0442 21.2173 30.0218 21.2344C28.7979 21.2344 28.2321 21.7825 28.2321 22.2954C28.2249 22.8732 28.8932 23.2543 29.986 23.825C31.7897 24.7055 32.6233 25.7731 32.6115 27.1766C32.5872 29.7374 30.4539 31.3922 27.1675 31.3922C25.7655 31.3767 24.4147 31.0787 23.6845 30.7344L24.1234 27.9719L24.5265 28.1688C25.5533 28.6294 26.2181 28.8157 27.4694 28.8157C28.368 28.8157 29.3325 28.4379 29.3402 27.611C29.346 27.071 28.937 26.686 27.72 26.0813C26.5341 25.4911 24.962 24.5024 24.9794 22.7297C24.9979 20.3317 27.1738 18.6578 30.263 18.6578ZM4.92314 19.05H9.97027C10.6499 19.0758 11.1986 19.2955 11.3881 20.036L12.476 25.6735C12.4761 25.674 12.4758 25.676 12.476 25.6766L12.8028 27.3657L15.8671 19.05H19.1821L14.2548 31.2219L10.943 31.225L8.30658 21.4031C9.87525 22.2375 11.2107 23.2028 11.9842 24.5313C11.7848 24.1109 11.522 23.6364 11.1858 23.1688C10.7942 22.6242 9.94865 21.921 9.59521 21.6219C8.36361 20.5795 6.69101 19.7377 4.88424 19.2922L4.92314 19.05ZM20.5003 19.0641H23.7421L21.7142 31.2172H18.4724L20.5003 19.0641ZM38.8103 19.0641H41.2662L43.8372 31.2172H40.8895C40.8895 31.2172 40.5971 29.821 40.502 29.3953C40.0387 29.3953 36.7984 29.3907 36.4338 29.3907C36.3104 29.7197 35.7646 31.2172 35.7646 31.2172H32.4294L37.1466 20.0735C37.4806 19.2816 38.0499 19.0641 38.8103 19.0641ZM39.0515 22.3328C38.892 22.7849 38.6143 23.5149 38.6329 23.4828C38.6329 23.4828 37.635 26.1548 37.3739 26.8485L39.9962 26.8469C39.7526 25.688 39.5088 24.5292 39.2647 23.3704L39.0515 22.3329V22.3328Z" fill="white"/>
</g>
<defs>
<clipPath id="clip0_57_1314">
<rect width="49.802" height="50" fill="white" transform="translate(0.518799)"/>
</clipPath>
</defs>
</svg>
